<?xml version="1.0" standalone="no"?><!DOCTYPE svg PUBLIC "-//W3C//DTD SVG 1.1//EN" "http://www.w3.org/Graphics/SVG/1.1/DTD/svg11.dtd"><svg t="1599544287215" class="icon" viewBox="0 0 1024 1024" version="1.1" xmlns="http://www.w3.org/2000/svg" p-id="1616" xmlns:xlink="http://www.w3.org/1999/xlink" width="200" height="200"><defs><style type="text/css"></style></defs><path d="M641.6384 798.72h-352.256A105.0624 105.0624 0 0 1 184.32 693.6576V186.9824A105.0624 105.0624 0 0 1 289.3824 81.92h445.2352A105.0624 105.0624 0 0 1 839.68 186.9824V583.68a20.48 20.48 0 0 1-40.96 0V186.9824A64.1024 64.1024 0 0 0 734.6176 122.88H289.3824A64.1024 64.1024 0 0 0 225.28 186.9824v506.6752A64.1024 64.1024 0 0 0 289.3824 757.76h352.256a20.48 20.48 0 0 1 0 40.96z" fill="#0090FF" p-id="1617"></path><path d="M883.87584 749.91616l-72.41728 72.3968L587.1616 598.016l72.41728-72.41728zM912.22016 796.61056l-54.14912 54.1696a12.9024 12.9024 0 0 1-18.24768 0l-15.79008-15.79008 72.3968-72.41728 15.79008 15.79008a12.9024 12.9024 0 0 1 0 18.24768zM573.44 512l73.5232 1.2288-72.2944 72.2944L573.44 512zM734.208 245.76h-450.56a20.48 20.48 0 0 1 0-40.96h450.56a20.48 20.48 0 0 1 0 40.96zM734.208 389.12h-450.56a20.48 20.48 0 0 1 0-40.96h450.56a20.48 20.48 0 0 1 0 40.96zM478.8224 532.48h-200.9088a20.48 20.48 0 0 1 0-40.96h200.9088a20.48 20.48 0 0 1 0 40.96zM478.8224 675.84h-200.9088a20.48 20.48 0 0 1 0-40.96h200.9088a20.48 20.48 0 0 1 0 40.96z" fill="#0090FF" p-id="1618"></path></svg>