<?xml version="1.0" standalone="no"?><!DOCTYPE svg PUBLIC "-//W3C//DTD SVG 1.1//EN" "http://www.w3.org/Graphics/SVG/1.1/DTD/svg11.dtd"><svg t="1599555835317" class="icon" viewBox="0 0 1137 1024" version="1.1" xmlns="http://www.w3.org/2000/svg" p-id="4743" xmlns:xlink="http://www.w3.org/1999/xlink" width="222.0703125" height="200"><defs><style type="text/css"></style></defs><path d="M1116.899556 20.138667v445.895111c-1.422222 1.251556-2.958222 2.389333-4.323556 3.754666-174.762667 174.876444-349.582222 349.639111-524.117333 524.743112-7.224889 7.224889-14.222222 11.377778-24.462223 9.841777-3.015111-0.398222-5.404444-0.853333-7.623111-3.185777-13.255111-13.539556-26.624-27.022222-39.992889-40.448l-56.32-56.604445c-49.607111-49.891556-99.100444-99.953778-148.821333-149.731555-35.043556-35.157333-70.485333-69.973333-105.585778-104.96-60.188444-60.074667-120.206222-120.206222-180.337777-180.337778-1.137778-1.137778-2.446222-2.048-3.640889-3.072V20.138667C23.381333 21.504 25.315556 22.755556 26.908444 24.234667L357.603556 354.986667c1.536 1.536 3.185778 3.015111 5.404444 5.12 1.877333-2.218667 3.185778-4.096 4.778667-5.688889l192.284444-192.512c5.859556-5.916444 12.913778-5.859556 18.830222 0.113778l82.830223 83.057777 48.355555 48.64 63.431111 63.886223c0.682667 0.682667 1.422222 1.251556 3.754667 3.185777 1.251556-1.934222 2.161778-4.152889 3.697778-5.745777C891.164444 244.622222 1001.415111 134.485333 1111.665778 24.291556c1.536-1.592889 3.470222-2.787556 5.233778-4.152889z" p-id="4744" fill="#e3c013"></path></svg>