<?xml version="1.0" standalone="no"?><!DOCTYPE svg PUBLIC "-//W3C//DTD SVG 1.1//EN" "http://www.w3.org/Graphics/SVG/1.1/DTD/svg11.dtd"><svg t="1602557044680" class="icon" viewBox="0 0 1024 1024" version="1.1" xmlns="http://www.w3.org/2000/svg" p-id="2333" xmlns:xlink="http://www.w3.org/1999/xlink" width="200" height="200"><defs><style type="text/css"></style></defs><path d="M681.07542 1023.900015H188.347053c-35.594825 0-64.490624-28.895799-64.490624-64.490625V130.929835c0-35.594825 28.895799-64.490624 64.490624-64.490624h617.310255c35.594825 0 64.490624 28.895799 64.490624 64.490624V605.060906c0 10.198517-8.298794 18.497311-18.497311 18.497311s-18.497311-8.298794-18.497311-18.497311V130.929835c0-15.197791-12.298212-27.496003-27.496002-27.496002H188.347053c-15.197791 0-27.496003 12.298212-27.496003 27.496002v828.479555c0 15.197791 12.298212 27.496003 27.496003 27.496003h492.728367c10.198517 0 18.497311 8.298794 18.497311 18.497311s-8.298794 18.497311-18.497311 18.497311z" fill="#666666" p-id="2334"></path><path d="M614.185144 270.809499H481.304463c-10.198517 0-18.497311-8.298794-18.497311-18.49731s8.298794-18.497311 18.497311-18.497311h132.880681c10.198517 0 18.497311 8.298794 18.497311 18.497311s-8.298794 18.497311-18.497311 18.49731zM732.667919 355.097246H481.304463c-10.198517 0-18.497311-8.298794-18.497311-18.497311s8.298794-18.497311 18.497311-18.497311h251.363456c10.198517 0 18.497311 8.298794 18.497311 18.497311 0 10.298503-8.298794 18.497311-18.497311 18.497311z" fill="#666666" p-id="2335"></path><path d="M313.128912 322.501984c-38.79436 0-70.289781-31.495421-70.289781-70.289781s31.495421-70.289781 70.289781-70.289781 70.289781 31.495421 70.289781 70.289781-31.595407 70.289781-70.289781 70.289781z m0-103.484955c-18.29734 0-33.29516 14.897834-33.295159 33.29516s14.897834 33.29516 33.295159 33.295159c18.29734 0 33.29516-14.897834 33.29516-33.295159s-14.99782-33.29516-33.29516-33.29516z" fill="#366DF0" p-id="2336"></path><path d="M614.185144 504.375543H481.304463c-10.198517 0-18.497311-8.298794-18.497311-18.49731s8.298794-18.497311 18.497311-18.497311h132.880681c10.198517 0 18.497311 8.298794 18.497311 18.497311s-8.298794 18.497311-18.497311 18.49731zM732.667919 588.763275H481.304463c-10.198517 0-18.497311-8.298794-18.497311-18.497311s8.298794-18.497311 18.497311-18.497311h251.363456c10.198517 0 18.497311 8.298794 18.497311 18.497311s-8.298794 18.497311-18.497311 18.497311z" fill="#666666" p-id="2337"></path><path d="M313.128912 556.168014c-38.79436 0-70.289781-31.495421-70.289781-70.289781s31.495421-70.289781 70.289781-70.289782 70.289781 31.495421 70.289781 70.289782-31.595407 70.289781-70.289781 70.289781z m0-103.484955c-18.29734 0-33.29516 14.897834-33.295159 33.295159 0 18.29734 14.897834 33.29516 33.295159 33.29516 18.29734 0 33.29516-14.897834 33.29516-33.29516s-14.99782-33.29516-33.29516-33.295159z" fill="#366DF0" p-id="2338"></path><path d="M547.794796 890.919347H261.336442c-10.198517 0-18.497311-8.298794-18.497311-18.49731s8.298794-18.497311 18.497311-18.497311h286.458354c10.198517 0 18.497311 8.298794 18.497311 18.497311s-8.298794 18.497311-18.497311 18.49731z" fill="#666666" p-id="2339"></path><path d="M835.352991 987.505306c-89.387005 0-162.176423-72.689432-162.176423-162.176423S745.965986 663.15246 835.352991 663.15246s162.176423 72.689432 162.176422 162.176423-72.789418 162.176423-162.176422 162.176423z m0-287.258239c-68.98997 0-125.081815 56.091845-125.081816 125.081816s56.091845 125.081815 125.081816 125.081815 125.081815-56.091845 125.081815-125.081815-56.091845-125.081815-125.081815-125.081816z" fill="#366DF0" p-id="2340"></path><path d="M988.530722 997.003925c-4.699317 0-9.498619-1.799738-13.098096-5.399215l-51.692485-51.692485c-7.198953-7.198953-7.198953-18.897253 0-26.196192 7.198953-7.198953 18.897253-7.198953 26.196191 0l51.692485 51.692485c7.198953 7.198953 7.198953 18.897253 0 26.196192-3.599477 3.599477-8.298794 5.399215-13.098095 5.399215z" fill="#366DF0" p-id="2341"></path><path d="M926.339763 843.826194c-10.198517 0-18.497311-8.298794-18.497311-18.497311 0-39.994186-32.495276-72.489461-72.489461-72.489461-10.198517 0-18.497311-8.298794-18.497311-18.497311s8.298794-18.497311 18.497311-18.497311c60.39122 0 109.484083 49.092863 109.484083 109.484083 0 10.198517-8.298794 18.497311-18.497311 18.497311z" fill="#366DF0" opacity=".3" p-id="2342"></path><path d="M261.336442 816.230206c-5.799157 0-11.598314-2.699608-15.197791-7.898852-5.899142-8.398779-3.799448-19.897107 4.599331-25.79625l89.486991-62.5909c7.198953-4.999273 16.997529-4.299375 23.396598 1.799738L406.015408 762.038084l111.98372-83.687833c8.198808-6.099113 19.797122-4.39936 25.896235 3.799447 6.099113 8.198808 4.39936 19.797122-3.799448 25.896236l-124.581888 92.986481c-7.198953 5.399215-17.297485 4.799302-23.79654-1.399796L349.023694 758.938535l-77.088793 53.892165c-3.199535 2.299666-6.898997 3.399506-10.598459 3.399506z" fill="#366DF0" p-id="2343"></path><path d="M520.098823 776.23602c-0.899869 0-1.699753-0.099985-2.599622-0.199971-10.098532-1.399796-17.1975-10.79843-15.697718-20.896962l6.59904-46.193284-46.193284-6.599041c-10.098532-1.399796-17.1975-10.79843-15.697718-20.896962 1.399796-10.098532 10.79843-17.097514 20.896962-15.697718l64.490624 9.198663c10.098532 1.399796 17.097514 10.79843 15.697718 20.896962l-9.198662 64.490624c-1.299811 9.298648-9.198663 15.897689-18.29734 15.897689z" fill="#366DF0" p-id="2344"></path><path d="M547.694811 103.733789c-1.599767 0-3.199535-0.199971-4.899288-0.699898l-239.565172-64.990552c-7.098968-1.899724-14.497892-0.899869-20.896962 2.699608-6.39907 3.699462-10.998401 9.598605-12.898125 16.597587l-8.798721 32.39529c-2.699608 9.898561-12.798139 15.697718-22.6967 12.99811-9.898561-2.699608-15.697718-12.798139-12.99811-22.6967l8.798721-32.39529c9.298648-34.295014 44.793488-54.692049 79.188487-45.393401l239.565172 64.990552c9.898561 2.699608 15.697718 12.798139 12.99811 22.6967-2.19968 8.298794-9.598605 13.797994-17.797412 13.797994z" fill="#666666" p-id="2345"></path><path d="M142.353739 947.411135c-1.599767 0-3.199535-0.199971-4.899287-0.699899l-75.189069-20.397034c-16.597587-4.499346-30.395581-15.197791-38.994331-30.19561-8.59875-14.99782-10.79843-32.39529-6.299084-48.992878l107.584359-396.54235c2.699608-9.898561 12.798139-15.697718 22.6967-12.998111 9.898561 2.699608 15.697718 12.798139 12.998111 22.696701L52.666778 856.92429c-1.899724 6.998982-0.899869 14.397907 2.699608 20.896962 3.699462 6.39907 9.598605 10.998401 16.597587 12.898124l75.189069 20.397035c9.898561 2.699608 15.697718 12.798139 12.99811 22.6967-2.19968 8.198808-9.69859 13.598023-17.797413 13.598024z" fill="#666666" p-id="2346"></path><path d="M851.650621 568.566211c-1.599767 0-3.199535-0.199971-4.899287-0.699898-9.898561-2.699608-15.697718-12.798139-12.998111-22.6967l84.587703-311.754677c3.999419-14.597878-4.699317-29.795668-19.297195-33.795087l-52.192412-14.197936c-9.898561-2.699608-15.697718-12.798139-12.99811-22.6967 2.699608-9.898561 12.898125-15.697718 22.6967-12.99811l52.192412 14.197935c34.295014 9.298648 54.692049 44.793488 45.393401 79.188488l-84.587703 311.754677c-2.299666 8.298794-9.69859 13.698009-17.897398 13.698008z" fill="#666666" p-id="2347"></path></svg>