<?xml version="1.0" standalone="no"?>
<!DOCTYPE svg PUBLIC "-//W3C//DTD SVG 1.1//EN" "http://www.w3.org/Graphics/SVG/1.1/DTD/svg11.dtd">
<svg 
	t="1536129703092" 
	class="icon" 
	style="enable-background:new 0 0 1024 1024;" 
	viewBox="0 0 1024 1024" 
	version="1.1" 
	xmlns="http://www.w3.org/2000/svg" 
	id="2753" 
	x="0px" 
	y="0px"
	xmlns:xlink="http://www.w3.org/1999/xlink" 
	xml:space="preserve"
	><defs><style type="text/css"></style></defs><path d="M461.132099 372.761272h357.533302v357.533302H461.132099z" fill="#790001" p-id="2754"></path><path d="M915.541212 890.512261c-19.763961 0-38.879924-10.529979-49.085904-28.997944-4.373991-7.937984-8.585983-16.037969-12.959975-23.975953-44.063914-82.13384-73.871856-132.515741-129.275747-132.515741-30.77994 0-55.889891-24.947951-55.889891-55.889891 0-30.77994 24.947951-55.889891 55.889891-55.889891 56.861889 0 106.757791 23.003955 148.22971 68.363867 32.399937 35.315931 56.37589 80.027844 79.379845 123.119759 4.211992 7.775985 8.261984 15.55197 12.473976 23.165955 14.741971 27.053947 4.859991 61.073881-22.193957 75.815852-8.423984 4.535991-17.657966 6.803987-26.567948 6.803987z" fill="#4B5659" p-id="2755"></path><path d="M869.047303 816.640405c-1.943996-11.825977-90.881822-183.221642-157.949692-221.777567-24.623952 5.831989-42.767916 27.863946-42.767916 54.269894 0 30.77994 24.947951 55.889891 55.889891 55.889891 55.403892 0 85.211834 50.381902 129.275747 132.515741 11.501978-2.267996 17.657966-8.909983 15.55197-20.897959z" fill="#3D4749" p-id="2756"></path><path d="M329.426357 962.76412c-14.741971 0-29.159943-5.831989-39.527923-16.523968-24.461952-24.623952-48.275906-65.123873-63.827876-94.607815-14.417972-27.377947-3.887992-61.073881 23.489955-75.491853 27.377947-14.417972 61.073881-3.887992 75.491852 23.489954 2.753995 5.18399 5.34599 10.04398 7.937985 14.579972l158.111691-193.913622c19.439962-23.975953 54.755893-27.539946 78.569846-7.937984 23.975953 19.439962 27.539946 54.755893 7.937985 78.569847L372.680272 942.19016c-10.04398 12.311976-24.785952 19.763961-40.499921 20.41196-0.971998 0.162-1.781997 0.162-2.753994 0.162z" fill="#4B5659" p-id="2757"></path><path d="M583.117861 628.396773c-2.267996-0.323999-4.697991 1.133998-7.289986 5.18399-25.43395 39.527923-229.391552 308.609397-248.507514 294.029425-33.371935-26.081949-75.491853-108.053789-91.691821-141.263724-16.685967 16.847967-21.221959 43.091916-9.557982 65.285873 15.55197 29.483942 39.203923 69.983863 63.827876 94.607815 10.529979 10.529979 24.785952 16.523968 39.527923 16.523968h2.753994c15.875969-0.809998 30.455941-8.261984 40.499921-20.411961l204.9296-251.261509c14.903971-18.467964 16.361968-43.253916 5.507989-62.693877z" fill="#3D4749" p-id="2758"></path><path d="M215.449595 835.593991a56.37589 56.37589 0 1 0 103.780101-44.075555 56.37589 56.37589 0 1 0-103.780101 44.075555Z" fill="#3F494C" p-id="2759"></path><path d="M258.308495 841.102357c-19.115963 0-37.421927-10.853979-45.84591-29.321943-10.04398-21.869957-27.215947-63.827875-32.075937-84.563834-6.317988-27.053947 10.36798-54.269894 37.421927-60.587882 27.053947-6.317988 54.269894 10.36798 60.587881 37.421927 2.105996 9.071982 14.579972 41.795918 25.59595 65.609872 11.663977 25.271951 0.485999 55.241892-24.785951 66.905869-6.641987 3.077994-13.769973 4.535991-20.89796 4.535991z" fill="#EAC18A" p-id="2760"></path><path d="M304.154406 769.660497c-11.015978-23.813953-23.327954-56.53789-25.59595-65.609872-6.317988-27.053947-33.533935-43.901914-60.587882-37.421927-3.239994 0.809998-6.479987 1.943996-9.395981 3.239994-14.417972 14.255972-22.517956 33.857934-20.249961 54.593893 4.049992 38.069926 40.82392 65.285872 82.13384 61.073881 13.121974-1.457997 25.109951-5.831989 35.153931-12.311976-0.485999-1.295997-0.971998-2.429995-1.457997-3.563993z" fill="#D8AE75" p-id="2761"></path><path d="M834.055371 781.810473c0 24.947951-11.987977 47.141908-30.61794 61.073881l-1.619997 27.053947-2.915994 49.895902c-0.971998 17.657966-0.647999 35.477931 1.133997 53.135897H480.086062c1.943996-17.657966 2.267996-35.315931 1.133998-53.135897l-2.915994-49.895902-1.619997-27.053947c-18.467964-13.931973-30.61794-36.125929-30.61794-61.073881 0-12.311976 2.915994-23.813953 7.937984-34.019934 9.557981-19.115963 14.741971-40.013922 13.445974-61.39788l-0.162-2.591995c0-51.839899 42.119918-93.959816 93.959817-93.959816h156.977693c51.839899 0 93.959816 42.119918 93.959817 93.959816l-0.162 2.591995c-1.295997 21.221959 3.887992 42.281917 13.445974 61.39788 5.669989 10.20598 8.585983 21.869957 8.585983 34.019934z" fill="#566166" p-id="2762"></path><path d="M803.437431 842.884354l-1.619997 27.215947c-11.177978 6.317988-24.137953 10.04398-37.907926 10.04398-38.717924 0-70.793862-28.997943-75.491853-66.41987 11.987977 26.243949 38.555925 44.549913 69.335865 44.549913 17.171966-0.162 33.047935-5.831989 45.683911-15.38997zM591.865844 813.562411c-4.697991 37.421927-36.773928 66.41987-75.491853 66.41987-13.769973 0-26.729948-3.725993-37.907926-10.04398l-1.619996-27.215947c12.797975 9.557981 28.511944 15.22797 45.68391 15.22797 30.77994 0.162 57.185888-18.143965 69.335865-44.387913zM725.677583 685.90666s44.387913-31.427939 39.527922-61.07388c-6.803987-42.443917-43.091916-47.465907-71.765859-46.33191l-43.577915 220.805569c185.975637-88.127828 75.815852-113.399779 75.815852-113.399779zM554.605917 685.90666S510.218003 654.478722 515.077994 624.83278c6.803987-42.443917 43.091916-47.465907 71.76586-46.33191l43.577915 220.805569c-185.975637-88.127828-75.815852-113.399779-75.815852-113.399779z" fill="#3F494C" p-id="2763"></path><path d="M627.019775 795.904445L548.773928 622.078785c-6.803987-15.065971 4.211992-32.237937 20.897959-32.237937h140.939725c16.523968 0 27.701946 17.171966 20.897959 32.237937l-78.245847 173.98766c-5.02199 11.177978-21.221959 11.177978-26.243949-0.162z" fill="#FFD594" p-id="2764"></path><path d="M584.251859 533.950957v70.469862c0 30.77994 24.947951 55.889891 55.889891 55.889891 30.77994 0 55.889891-24.947951 55.889891-55.889891v-70.469862h-111.779782z" fill="#FFD594" p-id="2765"></path><path d="M584.251859 569.590888c21.059959 10.853979 45.035912 17.009967 70.307863 17.009966h16.361968c8.585983 0 16.847967-0.647999 24.947951-2.105996v-50.705901h-111.617782v35.801931z" fill="#D8AE75" p-id="2766"></path><path d="M478.466065 195.047619v220.805569c0 84.725835 68.687866 153.5757 153.575701 153.5757h16.361968c84.725835 0 153.5757-68.687866 153.5757-153.5757V195.047619H478.466065z" fill="#FFD594" p-id="2767"></path><path d="M640.14175 888.244265c-3.401993 0-6.317988-2.753995-6.317988-6.317988v-112.751779c0-3.401993 2.753995-6.317988 6.317988-6.317988 3.401993 0 6.317988 2.753995 6.317987 6.317988v112.751779c0 3.563993-2.915994 6.317988-6.317987 6.317988zM640.14175 963.088119c-3.401993 0-6.317988-2.753995-6.317988-6.317988v-28.835943c0-3.401993 2.753995-6.317988 6.317988-6.317988 3.401993 0 6.317988 2.753995 6.317987 6.317988v28.835943c0 3.563993-2.915994 6.317988-6.317987 6.317988z" fill="#3F494C" p-id="2768"></path><path d="M678.373675 321.083373c-3.239994 0-6.317988-1.619997-8.099984-4.535991-2.753995-4.535991-1.295997-10.36798 3.077994-13.121975 28.835944-17.657966 67.553868-17.657966 96.227812 0 4.535991 2.753995 5.831989 8.585983 3.077994 13.121975-2.753995 4.535991-8.585983 5.831989-13.121974 3.077994-22.841955-14.093972-53.459896-14.093972-76.301851 0-1.457997 0.971998-3.239994 1.457997-4.859991 1.457997z" fill="#B55D4B" p-id="2769"></path><path d="M673.14828 389.198372a51.515899 51.515899 0 1 0 96.623022-35.770701 51.515899 51.515899 0 1 0-96.623022 35.770701Z" fill="#F2ECF3" p-id="2770"></path><path d="M721.465591 429.623161c-32.075937 0-58.319886-26.081949-58.319886-58.319886s26.081949-58.319886 58.319886-58.319886c32.075937 0 58.319886 26.081949 58.319886 58.319886s-26.081949 58.319886-58.319886 58.319886z m0-103.031799c-24.623952 0-44.711913 20.087961-44.711913 44.711913 0 24.623952 20.087961 44.711913 44.711913 44.711912 24.623952 0 44.711913-20.087961 44.711913-44.711912 0-24.623952-20.087961-44.711913-44.711913-44.711913z" fill="#8A628B" p-id="2771"></path><path d="M719.683594 331.613352c-4.049992 0-7.451985 3.401993-7.451985 7.451986 0 4.049992 3.401993 7.451985 7.451985 7.451985 4.049992 0 7.451985-3.401993 7.451986-7.451985 0-4.049992-3.239994-7.451985-7.451986-7.451986zM740.905553 344.897326c-2.591995 0-4.697991 2.105996-4.697991 4.697991 0 2.591995 2.105996 4.697991 4.697991 4.697991s4.697991-2.105996 4.697991-4.697991c0-2.429995-2.105996-4.697991-4.697991-4.697991z" fill="#F2ECF3" p-id="2772"></path><path d="M754.837526 456.353109h-23.651954c-5.34599 0-9.719981-4.373991-9.719981-9.719981s4.373991-9.719981 9.719981-9.719981H754.837526c5.34599 0 9.719981 4.373991 9.719981 9.719981 0.162 5.34599-4.211992 9.719981-9.719981 9.719981z" fill="#FFE9CC" p-id="2773"></path><path d="M515.725993 321.083373c-3.239994 0-6.317988-1.619997-8.099984-4.535991-2.753995-4.535991-1.295997-10.36798 3.077994-13.121975 28.835944-17.657966 67.553868-17.657966 96.227812 0 4.535991 2.753995 5.831989 8.585983 3.077994 13.121975-2.753995 4.535991-8.585983 5.831989-13.121975 3.077994-22.841955-14.093972-53.459896-14.093972-76.301851 0-1.457997 0.971998-3.239994 1.457997-4.85999 1.457997z" fill="#B55D4B" p-id="2774"></path><path d="M535.483769 419.250277a51.515899 51.515899 0 1 0 44.304387-93.019744 51.515899 51.515899 0 1 0-44.304387 93.019744Z" fill="#F2ECF3" p-id="2775"></path><path d="M558.817909 429.623161c-32.075937 0-58.319886-26.081949-58.319887-58.319886s26.081949-58.319886 58.319887-58.319886c32.075937 0 58.319886 26.081949 58.319886 58.319886s-26.243949 58.319886-58.319886 58.319886z m0-103.031799c-24.623952 0-44.711913 20.087961-44.711913 44.711913 0 24.623952 20.087961 44.711913 44.711913 44.711912 24.623952 0 44.711913-20.087961 44.711912-44.711912 0-24.623952-20.087961-44.711913-44.711912-44.711913z" fill="#8A628B" p-id="2776"></path><path d="M560.599905 331.613352c4.049992 0 7.451985 3.401993 7.451986 7.451986 0 4.049992-3.401993 7.451985-7.451986 7.451985-4.049992 0-7.451985-3.401993-7.451985-7.451985 0-4.049992 3.239994-7.451985 7.451985-7.451986zM539.377947 344.897326c2.591995 0 4.697991 2.105996 4.69799 4.697991 0 2.591995-2.105996 4.697991-4.69799 4.697991-2.591995 0-4.697991-2.105996-4.697991-4.697991 0-2.429995 2.105996-4.697991 4.697991-4.697991z" fill="#F2ECF3" p-id="2777"></path><path d="M525.445974 456.353109H549.097928c5.34599 0 9.719981-4.373991 9.719981-9.719981s-4.373991-9.719981-9.719981-9.719981h-23.651954c-5.34599 0-9.719981 4.373991-9.719981 9.719981s4.211992 9.719981 9.719981 9.719981z" fill="#FFE9CC" p-id="2778"></path><path d="M669.949692 378.107262h-59.777884c-3.725993 0-6.803987-3.077994-6.803986-6.803987 0-3.725993 3.077994-6.803987 6.803986-6.803987h59.777884c3.725993 0 6.803987 3.077994 6.803986 6.803987 0 3.725993-2.915994 6.803987-6.803986 6.803987zM807.001424 378.107262h-34.019934c-3.725993 0-6.803987-3.077994-6.803986-6.803987 0-3.725993 3.077994-6.803987 6.803986-6.803987h34.019934c3.725993 0 6.803987 3.077994 6.803987 6.803987 0.162 3.725993-2.915994 6.803987-6.803987 6.803987zM507.302009 378.107262h-34.019933c-3.725993 0-6.803987-3.077994-6.803987-6.803987 0-3.725993 3.077994-6.803987 6.803987-6.803987h34.019933c3.725993 0 6.803987 3.077994 6.803987 6.803987 0 3.725993-3.077994 6.803987-6.803987 6.803987z" fill="#8A628B" p-id="2779"></path><path d="M640.14175 685.258662c-24.947951 0-48.761905-5.669989-69.983864-15.71397l56.861889 126.359753c5.02199 11.339978 21.221959 11.339978 26.243949 0l56.861889-126.359753c-21.221959 10.20598-44.873912 15.713969-69.983863 15.71397z" fill="#FEF9FB" p-id="2780"></path><path d="M618.595792 825.550388m-8.909983 0a8.909983 8.909983 0 1 0 17.819965 0 8.909983 8.909983 0 1 0-17.819965 0Z" fill="#3F494C" p-id="2781"></path><path d="M618.595792 885.65227m-8.909983 0a8.909983 8.909983 0 1 0 17.819965 0 8.909983 8.909983 0 1 0-17.819965 0Z" fill="#3F494C" p-id="2782"></path><path d="M510.704003 89.747825c-63.989875 0-115.829774 51.839899-115.829774 115.829773v443.555134c0 44.711913 36.287929 81.161841 81.161841 81.161842h43.415915l-23.003955-31.10394c-11.663977-15.713969-17.819965-34.829932-17.819965-54.431893V264.869483c0-37.421927 30.455941-67.877867 67.877868-67.877868h107.40579V89.747825h-143.20772z" fill="#B55D4B" p-id="2783"></path><path d="M479.762063 122.79576c-3.401993 0-6.479987-2.105996-7.613985-5.345989-1.457997-4.211992 0.647999-8.909983 4.85999-10.52998 5.993988-2.105996 12.149976-3.725993 18.467964-4.85999 4.535991-0.809998 8.747983 2.267996 9.395982 6.641987 0.809998 4.373991-2.267996 8.747983-6.641987 9.395981-5.34599 0.971998-10.529979 2.267996-15.713969 4.049992-0.971998 0.485999-1.781997 0.647999-2.753995 0.647999zM413.990191 216.431577c-4.535991 0-8.099984-3.725993-8.099984-8.099984 0-36.287929 18.143965-69.983863 48.761905-90.071824 3.725993-2.429995 8.909983-1.457997 11.339978 2.267996s1.457997 8.909983-2.267996 11.339977c-25.919949 17.009967-41.309919 45.521911-41.309919 76.301851-0.323999 4.697991-3.887992 8.261984-8.423984 8.261984z" fill="#C8816F" p-id="2784"></path><path d="M724.219586 49.733903h-135.593736c-27.539946 0-49.733903 22.355956-49.733903 49.733903v58.481886c0 27.539946 22.355956 49.733903 49.733903 49.733902h129.761747c46.16991 0 83.591837 37.421927 83.591837 83.591837v353.32131c0 19.601962-6.317988 38.717924-17.819966 54.431894l-23.003955 31.103939h43.415916c44.711913 0 81.161841-36.287929 81.161841-81.161842V210.923588c-0.323999-89.099826-72.413859-161.189685-161.513684-161.189685z" fill="#AA4536" p-id="2785"></path><path d="M824.33539 118.421769c-2.105996 0-4.211992-0.809998-5.831989-2.429996C793.231451 90.881822 759.697516 76.94985 724.057586 76.94985c-4.535991 0-8.099984-3.725993-8.099984-8.099984 0-4.535991 3.725993-8.099984 8.099984-8.099985 40.013922 0 77.597848 15.55197 105.947793 43.739915 3.239994 3.239994 3.239994 8.423984 0 11.501977-1.457997 1.619997-3.563993 2.429995-5.669989 2.429996zM689.065654 76.94985h-24.461952c-4.535991 0-8.099984-3.725993-8.099984-8.099984 0-4.535991 3.725993-8.099984 8.099984-8.099985h24.461952c4.535991 0 8.099984 3.725993 8.099984 8.099985 0.162 4.373991-3.563993 8.099984-8.099984 8.099984z" fill="#BE6E5C" p-id="2786"></path><path d="M801.655434 284.957443c-2.915994-51.515899-19.925961-147.419712-105.623793-147.419712h-104.165797c-65.447872 0-58.319886 70.145863-1.133998 70.145863h127.655751c43.901914 0.162 79.865844 34.181933 83.267837 77.273849z" fill="#90050E" p-id="2787"></path><path d="M827.089385 951.262142c-15.38997 0-26.243949-0.809998-28.187945-0.971998-30.77994-2.429995-53.621895-29.483942-51.1919-60.263882 2.429995-30.77994 29.483942-53.621895 60.263882-51.1919 17.009967 1.295997 37.097928 0.647999 51.677899-1.295998-1.133998-20.73596 9.557981-41.309919 28.997943-51.839899 27.053947-14.741971 61.073881-4.859991 75.815852 22.193957 24.137953 44.063914 10.529979 77.111849 0.324 92.825819-18.791963 28.997943-53.945895 45.197912-107.405791 49.409903-10.853979 0.809998-21.383958 1.133998-30.29394 1.133998z m39.851922-88.613827z" fill="#4B5659" p-id="2788"></path><path d="M859.651321 835.594368c7.451985-3.239994 11.177978-9.395982 9.557981-18.953963-0.162-1.133998-1.295997-4.049992-3.077994-8.099984-4.535991 8.423984-6.803987 17.657966-6.479987 27.053947zM877.309287 902.338238c-11.015978 0.809998-21.383958 1.133998-30.293941 1.133997-15.38997 0-26.243949-0.809998-28.187945-0.971998-27.539946-2.267996-48.761905-24.137953-51.029901-50.8679-11.177978 9.233982-18.629964 22.841955-19.925961 38.393925-2.429995 30.77994 20.41196 57.671887 51.1919 60.263882 1.781997 0.162 12.797975 0.971998 28.187945 0.971998 8.909983 0 19.439962-0.323999 30.293941-1.133998 53.459896-4.373991 88.613827-20.41196 107.40579-49.409903 5.34599-8.261984 11.663977-21.545958 12.959975-38.555925-20.087961 23.165955-53.135896 36.287929-100.601803 40.175922z" fill="#3D4749" p-id="2789"></path><path d="M336.878342 498.149027c-7.451985 1.943996-14.741971 5.993988-20.735959 12.311976l-75.491853 78.407847-171.881664 44.873912 75.491852-78.407847c5.993988-6.317988 13.283974-10.36798 20.73596-12.311976L336.878342 498.149027z" fill="#DFE8E9" p-id="2790"></path><path d="M391.472235 530.062965l60.101883 230.20155-182.411644 47.627907L213.758583 595.834836l26.891947-6.965986 75.491853-78.407847c5.993988-6.317988 13.283974-10.36798 20.735959-12.311976 22.517956-5.993988 47.951906 6.641987 54.593893 31.913938z" fill="#CAD1D3" p-id="2791"></path><path d="M177.241515 710.811977a69.335865 75.329853 83.988 1 0 149.831075-15.779608 69.335865 75.329853 83.988 1 0-149.831075 15.779608Z" fill="#FFD594" p-id="2792"></path><path d="M326.996361 694.978643c-2.267996-22.193957-15.713969-40.661921-34.667932-51.3539 8.747983 10.04398 14.579972 22.355956 16.037969 36.287929 4.049992 38.069926-26.243949 72.413859-67.553868 76.78785-17.333966 1.781997-33.695934-1.943996-47.303908-9.557981 15.38997 17.495966 39.689922 27.539946 66.095871 24.785951 41.14792-4.535991 71.44186-38.879924 67.391868-76.949849z" fill="#EAC18A" p-id="2793"></path><path d="M723.085588 910.114222c-8.585983 0-17.171966-3.563993-23.489954-10.529979-11.663977-12.959975-10.529979-32.885936 2.429995-44.387913l58.319886-52.325898c12.959975-11.663977 32.885936-10.529979 44.387913 2.429995 11.663977 12.959975 10.529979 32.885936-2.429995 44.387913l-58.319886 52.325898c-5.993988 5.507989-13.445974 8.099984-20.897959 8.099984z" fill="#D1A36B" p-id="2794"></path><path d="M770.389495 815.506407c-4.535991-2.753995-5.993988-8.747983-3.239993-13.283974l27.215947-45.197912c2.753995-4.535991 8.747983-5.993988 13.283974-3.239993 4.535991 2.753995 5.993988 8.747983 3.239993 13.283974l-27.215947 45.197912c-2.753995 4.535991-8.747983 5.993988-13.283974 3.239993z" fill="#003361" p-id="2795"></path><path d="M805.543427 767.554501l-9.233982-5.507989c-6.479987-3.887992-15.065971-1.781997-18.953963 4.69799l-85.535833 141.911723 32.885936 19.925961 85.535832-141.911722c4.049992-6.641987 1.943996-15.065971-4.69799-19.115963z" fill="#6481A7" p-id="2796"></path><path d="M702.187629 940.246164l22.517956-11.825977-32.885936-19.925961 0.161999 25.43395c-0.162 5.34599 5.507989 8.747983 10.205981 6.317988z" fill="#6481A7" p-id="2797"></path><path d="M723.730346 855.662889l32.876216 19.830381-31.962537 52.990097-32.876216-19.828762zM777.430002 766.825502l32.876215 19.832002-5.522569 9.154602-32.876216-19.828762z" fill="#003361" p-id="2798"></path><path d="M773.791489 809.836418c-2.591995-1.619997-3.563993-5.02199-1.943997-7.775985l15.875969-26.405948c1.619997-2.591995 5.02199-3.563993 7.775985-1.943996 2.591995 1.619997 3.563993 5.02199 1.943996 7.775985l-15.875968 26.405948c-1.619997 2.591995-5.02199 3.563993-7.775985 1.943996z" fill="#90A4C2" p-id="2799"></path><path d="M698.819 887.228674a68.365234 74.197339 88.798 1 0 148.362024-3.112922 68.365234 74.197339 88.798 1 0-148.362024 3.112922Z" fill="#FFD594" p-id="2800"></path><path d="M787.723461 933.280177c-40.98592 0.809998-74.843854-28.997943-75.653852-66.743869-0.162-9.071982 1.457997-17.657966 4.859991-25.59595-11.663977 12.311976-18.467964 28.511944-18.143965 46.169909 0.809998 37.745926 34.667932 67.553868 75.653852 66.74387 31.265939-0.647999 57.509888-18.953963 68.039868-44.387913-13.283974 14.255972-32.885936 23.327954-54.755894 23.813953z" fill="#EAC18A" p-id="2801"></path><path d="M817.855403 857.950324c-3.077994 5.18399-14.093972 4.535991-24.623952-1.619997s-16.685967-15.22797-13.769973-20.573959c3.077994-5.18399 14.093972-4.535991 24.623952 1.619996 10.691979 6.155988 16.847967 15.22797 13.769973 20.57396z" fill="#FFE9CC" p-id="2802"></path></svg>